<?xml version="1.0" encoding="UTF-8"?><svg id="a" xmlns="http://www.w3.org/2000/svg" viewBox="0 0 3355.66 1069"><path d="M812.05,481.58c-36.4-36.55-84.8-56.68-136.29-56.68h-93.72v-186.97h-106.8v186.97h-93.72c-51.49,0-99.89,20.13-136.29,56.68-36.39,36.55-56.44,85.15-56.44,136.86v201.27l68.73.05,38.03-.05v-3.26c-.04-68.35-.09-198.36,0-201.14,2.66-46.69,41.32-83.26,88.01-83.26l83.61.04,8.07-57.39v151.46c0,51.71,20.05,100.31,56.46,136.86,36.41,36.55,84.82,56.68,136.31,56.68h7.74c47.04,0,92.33-17.2,127.54-48.44,34.89-30.96,57.46-73.42,63.53-119.58,1.1-8.39,1.65-16.98,1.65-25.53v-7.73c0-51.71-20.04-100.31-56.43-136.86ZM761.74,620.43v3.76c0,48.73-39.48,88.37-88.02,88.37h-3.71c-46.63,0-85.25-36.53-87.97-83.18v-97.28l96.89-.05c46.45,2.76,82.81,41.56,82.81,88.37Z" style="fill:#fff;"/><path d="M765,620.43v3.76c0,50.6-40.88,91.63-91.28,91.63h-3.71c-48.62,0-88.47-38.18-91.23-86.34v-100.63l100.24-.05c47.94,2.8,85.98,42.81,85.98,91.63ZM1069,106.9v855.2c0,59.05-47.84,106.9-106.9,106.9H106.9c-59.05,0-106.9-47.85-106.9-106.9V106.9C0,47.85,47.85,0,106.9,0h855.2c59.06,0,106.9,47.85,106.9,106.9ZM865.23,618.44c0-105.11-84.81-190.28-189.47-190.28h-96.98v-186.97h-100.28v186.97h-96.98c-104.66,0-189.47,85.17-189.47,190.28v198.02l65.47.05,34.77-.05s-.11-199.59,0-201.33c2.75-48.16,42.66-86.33,91.27-86.33l80.78.04,14.16-100.69v198.01c0,105.12,84.86,190.28,189.52,190.28h7.74c96.16,0,175.57-71.93,187.84-165.18,1.07-8.2,1.63-16.59,1.63-25.1v-7.73Z" style="fill:#f80;"/><path d="M383.57,528.8l94.94.05v97.32c0,105.12,84.86,190.28,189.52,190.28h7.74c96.16,0,175.57-71.93,187.84-165.18,1.07-8.2,1.63-16.59,1.63-25.1v-7.73c0-105.11-84.81-190.28-189.47-190.28h-96.98v-186.97h-100.28v186.97h-96.98c-104.66,0-189.47,85.17-189.47,190.28v198.02h100.24s-.11-199.59,0-201.33c2.75-48.16,42.66-86.33,91.27-86.33h0Z" style="fill:none;"/><path d="M106.9,0C47.85,0,0,47.85,0,106.9v855.2c0,59.05,47.85,106.9,106.9,106.9h855.2c59.06,0,106.9-47.85,106.9-106.9V106.9c0-59.05-47.84-106.9-106.9-106.9H106.9Z" style="fill:none;"/><path d="M578.79,528.85h0l100.24-.05c47.94,2.8,85.98,42.81,85.98,91.63v3.76c0,50.6-40.88,91.63-91.28,91.63h-3.71c-48.62,0-88.47-38.18-91.23-86.34v-100.63h0Z" style="fill:none;"/><path d="M1323.25,808.33h68.07v-180.99c0-100.44,37.98-143.8,132.16-143.8h29.21v-62.69c-6.12-.55-31.28-.8-37.6-.8-73.45,0-138.81,32.85-171.27,98.12-19.78,38.68-20.57,84.26-20.57,131.02v159.14h0ZM1644.49,617.18h0c0-76.01,54.26-134.17,120.42-134.17s120.41,58.16,120.41,134.17-54.31,134.96-120.41,134.96-120.42-59-120.42-134.96ZM1574.05,617.97h0c0,54.16,19.78,104.29,56.98,142.56,36.26,35.77,82.72,54.76,133.88,54.76s98.36-18.99,134.62-54.76c36.41-37.44,56.19-88.4,56.19-142.56s-19.78-104.29-56.19-142.02c-36.26-36.61-83.46-56.09-134.62-56.09s-97.62,19.48-133.88,56.09c-37.19,38.58-56.98,87.85-56.98,142.02ZM2770.79,427.81h-67.73v221.93c0,61.86-39.71,102.86-93.68,102.86s-94.47-41-94.47-102.86v-221.93h-67.73v209.11c0,116.42,66.94,178.77,161.41,178.77s162.19-62.35,162.19-178.77v-209.11h.01ZM2827.03,744.26h0v63.08h128.35c107.05,0,159.29-31.57,159.29-102.26,0-59.94-38.77-84.7-108.53-113.46l-68.22-27.97c-28.55-11.98-42.03-23.18-42.03-39.95,0-20.82,15.05-32.8,41.24-32.8h158.55v-63.09h-140.3c-84.06,0-127.56,35.52-127.56,95.9,0,55.94,32.46,82.27,100.58,110.24l65.06,26.39c34.14,14.35,50.76,25.56,50.76,47.17s-19.04,36.75-53.12,36.75h-164.07ZM3172.83,327.52h0v340.32c0,94.67,53.83,140.1,160.67,140.1h22.16v-63.15h-21.36c-64.92,0-93.39-27.23-93.39-88.98v-164.32h114.74v-63.15h-114.74v-100.82h-68.08,0ZM2011.9,253.32h0v333.23c0,46.71.79,87.02,20.62,125.75,32.41,65.21,97.78,103.39,171.28,103.39,110.2,0,189.92-81.64,189.92-198.5,0-69.31-29.6-128.16-83.72-165.75-28.76-19.49-66.3-31.18-103.06-31.18h-126.78l-.19-166.94h-68.08.01ZM2199.8,483.4h0c73.45,0,126.19,53.96,126.19,132.94,0,83.02-51.95,136.25-123.83,136.25s-122.18-53.23-122.18-135.42v-134.03l119.82.25h0Z" style="fill-rule:evenodd;"/></svg>